<svg xmlns="http://www.w3.org/2000/svg" width="26" height="31" viewBox="0 0 26 31">
    <path fill="#000" fill-rule="nonzero" d="M0 22.842c0 1.469.65 2.774 1.625 3.59v2.936c0 .98.65 1.632 1.625 1.632h1.625c.975 0 1.625-.653 1.625-1.632v-1.631h13v1.631c0 .98.65 1.632 1.625 1.632h1.625c.975 0 1.625-.653 1.625-1.632v-2.936C25.35 25.616 26 24.31 26 22.842V6.526C26 .816 20.15 0 13 0S0 .816 0 6.526v16.316zm5.688 1.632c-1.3 0-2.438-1.142-2.438-2.448 0-1.305 1.138-2.447 2.438-2.447 1.3 0 2.437 1.142 2.437 2.447 0 1.306-1.138 2.448-2.438 2.448zm14.625 0c-1.3 0-2.438-1.142-2.438-2.448 0-1.305 1.137-2.447 2.438-2.447 1.3 0 2.437 1.142 2.437 2.447 0 1.306-1.137 2.448-2.438 2.448zm2.437-9.79H3.25V6.526h19.5v8.158z"/>
</svg>
