<svg xmlns="http://www.w3.org/2000/svg" width="29" height="26" viewBox="0 0 29 26">
    <path fill="#000" fill-rule="nonzero" d="M25.649 1.641A2.424 2.424 0 0 0 23.361 0H5.64A2.424 2.424 0 0 0 3.35 1.641L0 11.375v13C0 25.269.725 26 1.611 26h1.611c.894 0 1.611-.731 1.611-1.625V22.75h19.334v1.625c0 .894.725 1.625 1.61 1.625h1.612c.894 0 1.611-.731 1.611-1.625v-13l-3.351-9.734zM5.639 17.875a2.424 2.424 0 0 1-2.417-2.438A2.424 2.424 0 0 1 5.64 13a2.424 2.424 0 0 1 2.417 2.437 2.424 2.424 0 0 1-2.417 2.438zm17.722 0a2.424 2.424 0 0 1-2.416-2.438A2.424 2.424 0 0 1 23.36 13a2.424 2.424 0 0 1 2.417 2.437 2.424 2.424 0 0 1-2.417 2.438zM3.222 9.75L5.64 2.437H23.36l2.417 7.313H3.222z"/>
</svg>
