<svg xmlns="http://www.w3.org/2000/svg" xmlns:xlink="http://www.w3.org/1999/xlink" width="131" height="29" viewBox="0 0 131 29">
    <defs>
        <path id="a" d="M.108 25.997H24.13V.077H.108z"/>
        <path id="c" d="M.02 25.997h24.022V.077H.02v25.92z"/>
        <path id="e" d="M.036 25.997H20.66V.077H.036v25.92z"/>
        <path id="g" d="M4.156.073V.67c0 2.721-.99 3.44-3.454 3.44H.088v4.038h4.068v4.037h4.068V8.148h4.069V4.11H8.224V.073H4.156z"/>
    </defs>
    <g fill="none" fill-rule="evenodd">
        <path fill="#FFF" d="M12.476 24.078c3.33.185 6.044-2.019 6.834-5.212h.28l4.246 2.348c-1.723 4.35-5.307 7.634-11.36 7.634C4.423 28.848 0 23.345 0 16.021 0 8.343 5.54 2.928 12.523 2.928c5.54 0 8.939 3.24 10.428 6.436L19.333 12.2h-.28c-.977-2.973-3.612-4.442-6.53-4.32-4.233.179-6.936 3.881-6.936 8.141 0 4.527 2.56 8.067 6.89 8.057M41.823 4.821l-1.165 4.924h-.28c-.744-.843-2.24-1.549-3.77-1.401-3.01.29-4.47 2.574-4.47 6.657v13.315h-5.47V3.462h4.586l.419 3.284h.14c1.024-2.53 3.072-3.818 5.446-3.818 1.91 0 3.772.961 4.564 1.893"/>
        <g transform="translate(106.578 2.852)">
            <mask id="b" fill="#fff">
                <use xlink:href="#a"/>
            </mask>
            <path fill="#FFF" d="M5.974 10.418h12.337c-.232-2.84-2.467-5.46-6.098-5.46-3.725 0-5.82 2.886-6.239 5.46m18.156 2.397c0 .754-.046 1.82-.046 1.82H5.834c.094 3.64 2.794 6.391 6.798 6.391 3.445 0 6.237-1.568 7.449-3.388h.278l2.514 4.01c-1.35 1.863-5.12 4.35-10.241 4.35-7.774 0-12.524-5.24-12.524-12.916C.108 5.359 5.508.077 12.213.077c6.75 0 11.917 5.148 11.917 12.738" mask="url(#b)"/>
        </g>
        <g transform="translate(42.785 2.852)">
            <mask id="d" fill="#fff">
                <use xlink:href="#c"/>
            </mask>
            <path fill="#FFF" d="M5.886 10.418h12.336c-.232-2.84-2.466-5.46-6.098-5.46-3.724 0-5.82 2.886-6.238 5.46m18.156 2.397c0 .754-.047 1.82-.047 1.82H5.746c.093 3.64 2.794 6.391 6.797 6.391 3.445 0 6.238-1.568 7.45-3.388h.278l2.635 4.25c-1.35 1.865-5.241 4.11-10.363 4.11C4.77 25.997.02 20.757.02 13.081.02 5.359 5.42.077 12.124.077c6.75 0 11.918 5.148 11.918 12.738" mask="url(#d)"/>
        </g>
        <g transform="translate(69.595 2.852)">
            <mask id="f" fill="#fff">
                <use xlink:href="#e"/>
            </mask>
            <path fill="#FFF" d="M15.073 13.17c-.512.932-2.002 1.464-5.353 2.219-3.399.755-4.66 1.806-4.66 3.271 0 1.598 1.586 2.82 3.588 2.82 3.26 0 6.518-2.186 6.518-4.804V13.17h-.093zm5.587-4.305v16.599h-4.423l-.605-3.284h-.14c-1.49 2.351-4.097 3.817-7.681 3.817-5.168 0-7.775-2.708-7.775-6.88 0-3.861 2.049-6.569 8.054-7.811 6.145-1.199 7.076-1.998 7.076-3.55 0-1.688-1.434-2.804-4.554-2.804-3.072 0-5.594 1.52-7.224 4.184h-.28l-2.886-4C2.364 2.208 6.042.078 10.697.078c5.959 0 9.963 3.24 9.963 8.788z" mask="url(#f)"/>
        </g>
        <g transform="translate(92.982)">
            <mask id="h" fill="#fff">
                <use xlink:href="#g"/>
            </mask>
            <path fill="#FF0E9D" d="M-3.876 16.119h20.133V-3.86H-3.876z" mask="url(#h)"/>
        </g>
    </g>
</svg>
